<svg width="2981" height="3002" xmlns="http://www.w3.org/2000/svg" xmlns:xlink="http://www.w3.org/1999/xlink" overflow="hidden"><defs><clipPath id="clip0"><rect x="542" y="-346" width="2981" height="3002"/></clipPath></defs><g clip-path="url(#clip0)" transform="translate(-542 346)"><path d="M705.781 1216.84 3242.79 1216.84 3242.79 1227.16 705.781 1227.16ZM710.937 1237.47 680 1222 710.937 1206.53ZM3237.63 1206.53 3268.57 1222 3237.63 1237.47Z"/><path d="M1979.16-46.2192 1979.16 2490.79 1968.84 2490.79 1968.84-46.2192ZM1958.53-41.0623 1974-71.9998 1989.47-41.0623ZM1989.47 2485.63 1974 2516.57 1958.53 2485.63Z"/><path d="M2241.5 512C2241.5 499.021 2252.02 488.5 2265 488.5 2277.98 488.5 2288.5 499.021 2288.5 512 2288.5 524.979 2277.98 535.5 2265 535.5 2252.02 535.5 2241.5 524.979 2241.5 512Z" stroke="#000000" stroke-width="4.58333" stroke-miterlimit="8" fill-rule="evenodd"/><path d="M1192.5 1547C1192.5 1534.02 1203.25 1523.5 1216.5 1523.5 1229.75 1523.5 1240.5 1534.02 1240.5 1547 1240.5 1559.98 1229.75 1570.5 1216.5 1570.5 1203.25 1570.5 1192.5 1559.98 1192.5 1547Z" stroke="#000000" stroke-width="4.58333" stroke-miterlimit="8" fill-rule="evenodd"/><text font-family="Arial,Arial_MSFontService,sans-serif" font-weight="400" font-size="83" transform="matrix(1 0 0 1 1898.78 2587)">Low<tspan font-size="83" x="-13.8843" y="-2699">High</tspan><tspan font-weight="700" font-size="110" x="-129" y="-2792">Arousal</tspan></text><path d="M2096.5 210C2096.5 197.021 2107.25 186.5 2120.5 186.5 2133.75 186.5 2144.5 197.021 2144.5 210 2144.5 222.979 2133.75 233.5 2120.5 233.5 2107.25 233.5 2096.5 222.979 2096.5 210Z" stroke="#000000" stroke-width="4.58333" stroke-miterlimit="8" fill-rule="evenodd"/><path d="M2491.5 317C2491.5 304.021 2502.02 293.5 2515 293.5 2527.98 293.5 2538.5 304.021 2538.5 317 2538.5 329.979 2527.98 340.5 2515 340.5 2502.02 340.5 2491.5 329.979 2491.5 317Z" stroke="#000000" stroke-width="4.58333" stroke-miterlimit="8" fill-rule="evenodd"/><path d="M2692.5 588C2692.5 575.021 2703.02 564.5 2716 564.5 2728.98 564.5 2739.5 575.021 2739.5 588 2739.5 600.979 2728.98 611.5 2716 611.5 2703.02 611.5 2692.5 600.979 2692.5 588Z" stroke="#000000" stroke-width="4.58333" stroke-miterlimit="8" fill-rule="evenodd"/><path d="M2652.5 520C2652.5 507.021 2663.24 496.5 2676.5 496.5 2689.75 496.5 2700.5 507.021 2700.5 520 2700.5 532.979 2689.75 543.5 2676.5 543.5 2663.24 543.5 2652.5 532.979 2652.5 520Z" stroke="#000000" stroke-width="4.58333" stroke-miterlimit="8" fill-rule="evenodd"/><path d="M2561.5 709C2561.5 696.021 2572.02 685.5 2585 685.5 2597.98 685.5 2608.5 696.021 2608.5 709 2608.5 721.979 2597.98 732.5 2585 732.5 2572.02 732.5 2561.5 721.979 2561.5 709Z" stroke="#000000" stroke-width="4.58333" stroke-miterlimit="8" fill-rule="evenodd"/><path d="M2623.5 901.5C2623.5 888.245 2634.02 877.5 2647 877.5 2659.98 877.5 2670.5 888.245 2670.5 901.5 2670.5 914.755 2659.98 925.5 2647 925.5 2634.02 925.5 2623.5 914.755 2623.5 901.5Z" stroke="#000000" stroke-width="4.58333" stroke-miterlimit="8" fill-rule="evenodd"/><path d="M2752.5 1002C2752.5 989.021 2763.25 978.5 2776.5 978.5 2789.75 978.5 2800.5 989.021 2800.5 1002 2800.5 1014.98 2789.75 1025.5 2776.5 1025.5 2763.25 1025.5 2752.5 1014.98 2752.5 1002Z" stroke="#000000" stroke-width="4.58333" stroke-miterlimit="8" fill-rule="evenodd"/><path d="M1797.5 408C1797.5 395.021 1808.02 384.5 1821 384.5 1833.98 384.5 1844.5 395.021 1844.5 408 1844.5 420.979 1833.98 431.5 1821 431.5 1808.02 431.5 1797.5 420.979 1797.5 408Z" stroke="#000000" stroke-width="4.58333" stroke-miterlimit="8" fill-rule="evenodd"/><path d="M1580.5 492C1580.5 479.021 1591.02 468.5 1604 468.5 1616.98 468.5 1627.5 479.021 1627.5 492 1627.5 504.979 1616.98 515.5 1604 515.5 1591.02 515.5 1580.5 504.979 1580.5 492Z" stroke="#000000" stroke-width="4.58333" stroke-miterlimit="8" fill-rule="evenodd"/><path d="M1528.5 396C1528.5 383.021 1539.02 372.5 1552 372.5 1564.98 372.5 1575.5 383.021 1575.5 396 1575.5 408.979 1564.98 419.5 1552 419.5 1539.02 419.5 1528.5 408.979 1528.5 396Z" stroke="#000000" stroke-width="4.58333" stroke-miterlimit="8" fill-rule="evenodd"/><path d="M1352.5 512.5C1352.5 499.245 1363.02 488.5 1376 488.5 1388.98 488.5 1399.5 499.245 1399.5 512.5 1399.5 525.755 1388.98 536.5 1376 536.5 1363.02 536.5 1352.5 525.755 1352.5 512.5Z" stroke="#000000" stroke-width="4.58333" stroke-miterlimit="8" fill-rule="evenodd"/><path d="M1262.5 632C1262.5 619.021 1273.25 608.5 1286.5 608.5 1299.75 608.5 1310.5 619.021 1310.5 632 1310.5 644.979 1299.75 655.5 1286.5 655.5 1273.25 655.5 1262.5 644.979 1262.5 632Z" stroke="#000000" stroke-width="4.58333" stroke-miterlimit="8" fill-rule="evenodd"/><path d="M1402.5 752.5C1402.5 739.245 1413.02 728.5 1426 728.5 1438.98 728.5 1449.5 739.245 1449.5 752.5 1449.5 765.755 1438.98 776.5 1426 776.5 1413.02 776.5 1402.5 765.755 1402.5 752.5Z" stroke="#000000" stroke-width="4.58333" stroke-miterlimit="8" fill-rule="evenodd"/><path d="M1272.5 885C1272.5 872.021 1283.25 861.5 1296.5 861.5 1309.75 861.5 1320.5 872.021 1320.5 885 1320.5 897.979 1309.75 908.5 1296.5 908.5 1283.25 908.5 1272.5 897.979 1272.5 885Z" stroke="#000000" stroke-width="4.58333" stroke-miterlimit="8" fill-rule="evenodd"/><path d="M1017.5 1329.5C1017.5 1316.25 1028.25 1305.5 1041.5 1305.5 1054.75 1305.5 1065.5 1316.25 1065.5 1329.5 1065.5 1342.75 1054.75 1353.5 1041.5 1353.5 1028.25 1353.5 1017.5 1342.75 1017.5 1329.5Z" stroke="#000000" stroke-width="4.58333" stroke-miterlimit="8" fill-rule="evenodd"/><path d="M1067.5 1608.5C1067.5 1595.25 1078.25 1584.5 1091.5 1584.5 1104.75 1584.5 1115.5 1595.25 1115.5 1608.5 1115.5 1621.75 1104.75 1632.5 1091.5 1632.5 1078.25 1632.5 1067.5 1621.75 1067.5 1608.5Z" stroke="#000000" stroke-width="4.58333" stroke-miterlimit="8" fill-rule="evenodd"/><path d="M1093.5 1797.5C1093.5 1784.25 1104.25 1773.5 1117.5 1773.5 1130.75 1773.5 1141.5 1784.25 1141.5 1797.5 1141.5 1810.75 1130.75 1821.5 1117.5 1821.5 1104.25 1821.5 1093.5 1810.75 1093.5 1797.5Z" stroke="#000000" stroke-width="4.58333" stroke-miterlimit="8" fill-rule="evenodd"/><path d="M1296.5 2080.5C1296.5 2067.25 1307.25 2056.5 1320.5 2056.5 1333.75 2056.5 1344.5 2067.25 1344.5 2080.5 1344.5 2093.75 1333.75 2104.5 1320.5 2104.5 1307.25 2104.5 1296.5 2093.75 1296.5 2080.5Z" stroke="#000000" stroke-width="4.58333" stroke-miterlimit="8" fill-rule="evenodd"/><path d="M1678.5 2146.5C1678.5 2133.25 1689.25 2122.5 1702.5 2122.5 1715.75 2122.5 1726.5 2133.25 1726.5 2146.5 1726.5 2159.75 1715.75 2170.5 1702.5 2170.5 1689.25 2170.5 1678.5 2159.75 1678.5 2146.5Z" stroke="#000000" stroke-width="4.58333" stroke-miterlimit="8" fill-rule="evenodd"/><path d="M2048.5 2129.5C2048.5 2116.25 2059.25 2105.5 2072.5 2105.5 2085.75 2105.5 2096.5 2116.25 2096.5 2129.5 2096.5 2142.75 2085.75 2153.5 2072.5 2153.5 2059.25 2153.5 2048.5 2142.75 2048.5 2129.5Z" stroke="#000000" stroke-width="4.58333" stroke-miterlimit="8" fill-rule="evenodd"/><path d="M2292.5 2168.5C2292.5 2155.25 2303.25 2144.5 2316.5 2144.5 2329.75 2144.5 2340.5 2155.25 2340.5 2168.5 2340.5 2181.75 2329.75 2192.5 2316.5 2192.5 2303.25 2192.5 2292.5 2181.75 2292.5 2168.5Z" stroke="#000000" stroke-width="4.58333" stroke-miterlimit="8" fill-rule="evenodd"/><path d="M2405.5 1546.5C2405.5 1533.25 2416.25 1522.5 2429.5 1522.5 2442.75 1522.5 2453.5 1533.25 2453.5 1546.5 2453.5 1559.75 2442.75 1570.5 2429.5 1570.5 2416.25 1570.5 2405.5 1559.75 2405.5 1546.5Z" stroke="#000000" stroke-width="4.58333" stroke-miterlimit="8" fill-rule="evenodd"/><path d="M2466.5 1631.5C2466.5 1618.25 2477.25 1607.5 2490.5 1607.5 2503.75 1607.5 2514.5 1618.25 2514.5 1631.5 2514.5 1644.75 2503.75 1655.5 2490.5 1655.5 2477.25 1655.5 2466.5 1644.75 2466.5 1631.5Z" stroke="#000000" stroke-width="4.58333" stroke-miterlimit="8" fill-rule="evenodd"/><path d="M2611.5 1868C2611.5 1855.02 2622.02 1844.5 2635 1844.5 2647.98 1844.5 2658.5 1855.02 2658.5 1868 2658.5 1880.98 2647.98 1891.5 2635 1891.5 2622.02 1891.5 2611.5 1880.98 2611.5 1868Z" stroke="#000000" stroke-width="4.58333" stroke-miterlimit="8" fill-rule="evenodd"/><path d="M2534.5 1546.5C2534.5 1533.25 2545.25 1522.5 2558.5 1522.5 2571.75 1522.5 2582.5 1533.25 2582.5 1546.5 2582.5 1559.75 2571.75 1570.5 2558.5 1570.5 2545.25 1570.5 2534.5 1559.75 2534.5 1546.5Z" stroke="#000000" stroke-width="4.58333" stroke-miterlimit="8" fill-rule="evenodd"/><path d="M2846.5 1348.5C2846.5 1335.25 2857.25 1324.5 2870.5 1324.5 2883.75 1324.5 2894.5 1335.25 2894.5 1348.5 2894.5 1361.75 2883.75 1372.5 2870.5 1372.5 2857.25 1372.5 2846.5 1361.75 2846.5 1348.5Z" stroke="#000000" stroke-width="4.58333" stroke-miterlimit="8" fill-rule="evenodd"/><path d="M2865.5 1454.5C2865.5 1441.25 2876.25 1430.5 2889.5 1430.5 2902.75 1430.5 2913.5 1441.25 2913.5 1454.5 2913.5 1467.75 2902.75 1478.5 2889.5 1478.5 2876.25 1478.5 2865.5 1467.75 2865.5 1454.5Z" stroke="#000000" stroke-width="4.58333" stroke-miterlimit="8" fill-rule="evenodd"/><path d="M724 1196 724 1248.53" stroke="#000000" stroke-width="10.3125" stroke-miterlimit="8" fill="none" fill-rule="evenodd"/><path d="M1582.5 316C1582.5 303.021 1593.02 292.5 1606 292.5 1618.98 292.5 1629.5 303.021 1629.5 316 1629.5 328.979 1618.98 339.5 1606 339.5 1593.02 339.5 1582.5 328.979 1582.5 316Z" stroke="#000000" stroke-width="4.58333" stroke-miterlimit="8" fill-rule="evenodd"/><text font-family="Arial,Arial_MSFontService,sans-serif" font-weight="700" font-size="73" transform="matrix(1 0 0 1 2179 231)">Astonished<tspan font-size="73" x="383.166" y="106">Excited</tspan><tspan font-size="73" x="-58.1311" y="387">Amused</tspan><tspan font-size="73" x="543.688" y="295">Jo</tspan><tspan font-size="73" x="629.053" y="295">y</tspan><tspan font-size="73" x="595.32" y="376">Happy</tspan><tspan font-size="73" x="497.426" y="496">Delighted</tspan><tspan font-size="73" x="519.374" y="676">Glad</tspan><tspan font-size="73" x="665.52" y="798">Pleased</tspan><tspan font-size="73" x="731.067" y="1144">C</tspan>ontent<tspan font-size="73" x="766.955" y="1254">Satisfied</tspan><tspan font-size="73" x="438.668" y="1345">At ease</tspan><tspan font-size="73" x="-42.8232" y="1337">Serene</tspan><tspan font-size="73" x="367.742" y="1466">Calm</tspan><tspan font-size="73" x="499.234" y="1657">Relaxed</tspan><tspan font-size="73" x="193.851" y="1967">Sleepy</tspan><tspan font-size="73" x="-106.212" y="2009">Tired</tspan><tspan font-size="73" x="-562.564" y="2032">Droopy</tspan><tspan font-size="73" x="-966.214" y="1794">Bored</tspan><tspan font-size="73" x="-1000.43" y="1587">Gloomy</tspan><tspan font-size="73" x="-981.493" y="1447">Depressed</tspan><tspan font-size="73" x="-916.832" y="1269">Sad</tspan><tspan font-size="73" x="-1466.11" y="1194">Miserable</tspan><tspan font-size="73" x="-1248" y="777">Distressed</tspan><tspan font-size="73" x="-1257.08" y="499">Frustrated</tspan><tspan font-size="73" x="-688.644" y="542">Annoyed</tspan><tspan font-size="73" x="-573.356" y="379">Tense</tspan><tspan font-size="73" x="-1091.62" y="284">Angry</tspan><tspan font-size="73" x="-904.596" y="188">Afraid</tspan><tspan font-size="73" x="-504.142" y="263">Alarmed</tspan><tspan font-size="73" x="-673.994" y="34">Fearful</tspan></text><path d="M3224 1196 3224 1248.53" stroke="#000000" stroke-width="10.3125" stroke-miterlimit="8" fill="none" fill-rule="evenodd"/><path d="M2911 1196 2911 1248.53" stroke="#000000" stroke-width="10.3125" stroke-miterlimit="8" fill="none" fill-rule="evenodd"/><path d="M2599 1196 2599 1248.53" stroke="#000000" stroke-width="10.3125" stroke-miterlimit="8" fill="none" fill-rule="evenodd"/><path d="M2287 1196 2287 1248.53" stroke="#000000" stroke-width="10.3125" stroke-miterlimit="8" fill="none" fill-rule="evenodd"/><path d="M1662 1196 1662 1248.53" stroke="#000000" stroke-width="10.3125" stroke-miterlimit="8" fill="none" fill-rule="evenodd"/><path d="M1349 1196 1349 1248.53" stroke="#000000" stroke-width="10.3125" stroke-miterlimit="8" fill="none" fill-rule="evenodd"/><path d="M1037 1196 1037 1248.53" stroke="#000000" stroke-width="10.3125" stroke-miterlimit="8" fill="none" fill-rule="evenodd"/><path d="M1974 1196 1974 1248.53" stroke="#000000" stroke-width="10.3125" stroke-miterlimit="8" fill="none" fill-rule="evenodd"/><path d="M2000.53 2473 1948 2473" stroke="#000000" stroke-width="10.3125" stroke-miterlimit="8" fill="none" fill-rule="evenodd"/><path d="M2000.53 2160 1948 2160" stroke="#000000" stroke-width="10.3125" stroke-miterlimit="8" fill="none" fill-rule="evenodd"/><path d="M2000.53 1847 1948 1847" stroke="#000000" stroke-width="10.3125" stroke-miterlimit="8" fill="none" fill-rule="evenodd"/><path d="M2000.53 1535 1948 1535" stroke="#000000" stroke-width="10.3125" stroke-miterlimit="8" fill="none" fill-rule="evenodd"/><path d="M2000.53 1222 1948 1222" stroke="#000000" stroke-width="10.3125" stroke-miterlimit="8" fill="none" fill-rule="evenodd"/><path d="M2000.53 909 1948 909" stroke="#000000" stroke-width="10.3125" stroke-miterlimit="8" fill="none" fill-rule="evenodd"/><path d="M2000.53 596 1948 596.001" stroke="#000000" stroke-width="10.3125" stroke-miterlimit="8" fill="none" fill-rule="evenodd"/><path d="M2000.53 283 1948 283" stroke="#000000" stroke-width="10.3125" stroke-miterlimit="8" fill="none" fill-rule="evenodd"/><path d="M2000.53-29.9997 1948-29.9994" stroke="#000000" stroke-width="10.3125" stroke-miterlimit="8" fill="none" fill-rule="evenodd"/><text font-family="Arial,Arial_MSFontService,sans-serif" font-weight="700" font-size="50" transform="matrix(1 0 0 1 1909.95 -13)">9<tspan font-size="50" x="-886.39" y="1303">2</tspan><tspan font-size="50" x="-576.982" y="1303">3</tspan><tspan font-size="50" x="-261.406" y="1303">4</tspan><tspan font-size="50" x="359.843" y="1303">6</tspan><tspan font-size="50" x="677.717" y="1303">7</tspan><tspan font-size="50" x="986.72" y="1303">8</tspan><tspan font-size="50" x="1299.98" y="1303">9</tspan><tspan font-size="50" x="81.4777" y="1303">5</tspan><tspan font-size="50" x="0" y="310">8</tspan><tspan font-size="50" x="0" y="626">7</tspan><tspan font-size="50" x="0" y="936">6</tspan><tspan font-size="50" x="0" y="1562">4</tspan><tspan font-size="50" x="0" y="1876">3</tspan><tspan font-size="50" x="0" y="2186">2</tspan><tspan font-size="50" x="0" y="2501">1</tspan></text><path d="M1950.5 1222.5C1950.5 1209.25 1961.25 1198.5 1974.5 1198.5 1987.75 1198.5 1998.5 1209.25 1998.5 1222.5 1998.5 1235.75 1987.75 1246.5 1974.5 1246.5 1961.25 1246.5 1950.5 1235.75 1950.5 1222.5Z" stroke="#000000" stroke-width="4.58333" stroke-miterlimit="8" fill-rule="evenodd"/><text font-family="Arial,Arial_MSFontService,sans-serif" font-weight="700" font-size="73" transform="matrix(1 0 0 1 1694.74 1183)">Neutral</text><text font-family="Arial,Arial_MSFontService,sans-serif" font-weight="400" font-size="83" transform="matrix(6.12323e-17 1 -1 6.12323e-17 3290.88 1083)">Positive</text><text font-family="Arial,Arial_MSFontService,sans-serif" font-weight="400" font-size="83" transform="matrix(-1.83697e-16 -1 1 -1.83697e-16 654.093 1391)">Negative</text><text font-family="Arial,Arial_MSFontService,sans-serif" font-weight="700" font-size="110" transform="matrix(6.12323e-17 1 -1 6.12323e-17 3385.5 1018)">Valance</text><text font-family="Arial,Arial_MSFontService,sans-serif" font-weight="700" font-size="50" transform="matrix(1 0 0 1 710.264 1290)">1</text></g></svg>